<svg xmlns="http://www.w3.org/2000/svg" version="1.1" xmlns:xlink="http://www.w3.org/1999/xlink" xmlns:svgjs="http://svgjs.com/svgjs" width="1440" height="1000" preserveAspectRatio="none" viewBox="0 0 1440 1000"><g mask="url(&quot;#SvgjsMask1016&quot;)" fill="none"><rect width="1440" height="1000" x="0" y="0" fill="url(#SvgjsLinearGradient1017)"></rect><path d="M1440 0L760.52 0L1440 477.99z" fill="rgba(255, 255, 255, .1)"></path><path d="M760.52 0L1440 477.99L1440 650.94L522.64 0z" fill="rgba(255, 255, 255, .075)"></path><path d="M522.64 0L1440 650.94L1440 820.98L337.11 0z" fill="rgba(255, 255, 255, .05)"></path><path d="M337.1099999999999 0L1440 820.98L1440 844.94L207.6299999999999 0z" fill="rgba(255, 255, 255, .025)"></path><path d="M0 1000L396.23 1000L0 720.27z" fill="rgba(0, 0, 0, .1)"></path><path d="M0 720.27L396.23 1000L781.86 1000L0 444.64z" fill="rgba(0, 0, 0, .075)"></path><path d="M0 444.64L781.86 1000L1162.53 1000L0 261.13z" fill="rgba(0, 0, 0, .05)"></path><path d="M0 261.13L1162.53 1000L1169.6299999999999 1000L0 243.13z" fill="rgba(0, 0, 0, .025)"></path></g><defs><mask id="SvgjsMask1016"><rect width="1440" height="1000" fill="#ffffff"></rect></mask><linearGradient x1="92.36%" y1="-11%" x2="7.64%" y2="111%" gradientUnits="userSpaceOnUse" id="SvgjsLinearGradient1017"><stop stop-color="rgba(243, 243, 243, 1)" offset="0"></stop><stop stop-color="rgba(243, 243, 243, 1)" offset="1"></stop></linearGradient></defs></svg>